<?xml version="1.0" encoding="utf-8"?>
<!-- Generator: Adobe Illustrator 15.1.0, SVG Export Plug-In . SVG Version: 6.00 Build 0)  -->
<!DOCTYPE svg PUBLIC "-//W3C//DTD SVG 1.1//EN" "http://www.w3.org/Graphics/SVG/1.1/DTD/svg11.dtd">
<svg version="1.1" id="Layer_1" xmlns="http://www.w3.org/2000/svg" xmlns:xlink="http://www.w3.org/1999/xlink" x="0px" y="0px"
	 width="233px" height="74px" viewBox="0 0 233 74" enable-background="new 0 0 233 74" xml:space="preserve">
<g>
	<path fill="#0058A2" d="M187.264,54.494c0-1.789,1.402-3.237,3.133-3.237c1.727,0,3.131,1.448,3.131,3.237
		c0,1.788-1.404,3.239-3.131,3.239C188.667,57.733,187.264,56.282,187.264,54.494"/>
	<path fill="#0058A2" d="M184.194,42.07c0-1.553,1.217-2.81,2.715-2.81c1.506,0,2.719,1.257,2.719,2.81
		c0,1.554-1.213,2.812-2.719,2.812C185.411,44.883,184.194,43.624,184.194,42.07"/>
	<path fill="#0058A2" d="M186.282,29.929c0-1.341,1.053-2.428,2.348-2.428c1.297,0,2.346,1.087,2.346,2.428
		c0,1.339-1.049,2.427-2.346,2.427C187.334,32.356,186.282,31.268,186.282,29.929"/>
	<path fill="#0058A2" d="M190.747,18.927c0-1.071,0.838-1.938,1.873-1.938c1.031,0,1.873,0.868,1.873,1.938
		c0,1.072-0.842,1.939-1.873,1.939C191.584,20.866,190.747,19.999,190.747,18.927"/>
	<path fill="#0058A2" d="M198.524,9.748c0-0.79,0.617-1.43,1.381-1.43s1.381,0.64,1.381,1.43c0,0.789-0.617,1.43-1.381,1.43
		S198.524,10.537,198.524,9.748"/>
	<path fill="#0058A2" d="M208.78,3.862c0-0.668,0.523-1.209,1.166-1.209c0.646,0,1.168,0.541,1.168,1.209
		c0,0.666-0.521,1.208-1.168,1.208C209.303,5.069,208.78,4.528,208.78,3.862"/>
	<path fill="#0058A2" d="M220.12,1.123c0-0.621,0.484-1.123,1.084-1.123c0.604,0,1.086,0.501,1.086,1.123
		c0,0.619-0.482,1.122-1.086,1.122C220.604,2.245,220.12,1.742,220.12,1.123"/>
	<path fill="#0058A2" d="M230.979,1.385c0-0.578,0.455-1.046,1.008-1.046c0.561,0,1.014,0.468,1.014,1.046
		c0,0.576-0.453,1.043-1.014,1.043C231.434,2.428,230.979,1.961,230.979,1.385"/>
	<path fill="#A0B2DB" d="M170.684,18.046c0-1.79,1.402-3.238,3.133-3.238c1.729,0,3.131,1.449,3.131,3.238
		c0,1.789-1.402,3.239-3.131,3.239C172.086,21.285,170.684,19.834,170.684,18.046"/>
	<path fill="#A0B2DB" d="M174.581,30.325c0-1.551,1.219-2.81,2.719-2.81c1.504,0,2.719,1.258,2.719,2.81
		c0,1.554-1.215,2.812-2.719,2.812C175.799,33.138,174.581,31.879,174.581,30.325"/>
	<path fill="#A0B2DB" d="M173.237,43.171c0-1.34,1.051-2.427,2.346-2.427s2.348,1.087,2.348,2.427c0,1.341-1.053,2.431-2.348,2.431
		S173.237,44.512,173.237,43.171"/>
	<path fill="#A0B2DB" d="M169.719,54.177c0-1.071,0.84-1.94,1.871-1.94c1.039,0,1.877,0.869,1.877,1.94
		c0,1.069-0.838,1.937-1.877,1.937C170.559,56.113,169.719,55.246,169.719,54.177"/>
	<path fill="#A0B2DB" d="M162.924,63.354c0-0.79,0.617-1.429,1.385-1.429c0.762,0,1.379,0.639,1.379,1.429
		c0,0.789-0.617,1.429-1.379,1.429C163.542,64.783,162.924,64.144,162.924,63.354"/>
	<path fill="#A0B2DB" d="M153.096,69.238c0-0.667,0.525-1.208,1.17-1.208s1.168,0.541,1.168,1.208c0,0.669-0.523,1.209-1.168,1.209
		S153.096,69.907,153.096,69.238"/>
	<path fill="#A0B2DB" d="M141.92,71.978c0-0.619,0.486-1.123,1.086-1.123s1.086,0.504,1.086,1.123c0,0.621-0.486,1.125-1.086,1.125
		S141.92,72.599,141.92,71.978"/>
	<path fill="#A0B2DB" d="M131.209,71.716c0-0.577,0.455-1.043,1.012-1.043c0.559,0,1.01,0.466,1.01,1.043
		c0,0.578-0.451,1.048-1.01,1.048C131.665,72.764,131.209,72.294,131.209,71.716"/>
	<path fill="#0058A2" d="M12.747,41.584c0-6.593-8.498-4.633-8.498-8.47c0-1.518,1.121-2.476,3.401-2.476
		c1.233,0,2.585,0.199,3.744,0.558l0.117-3.476c-1.159-0.201-2.473-0.359-3.591-0.359c-5.216,0-7.92,2.716-7.92,6.151
		c0,6.873,8.421,4.474,8.421,8.47c0,1.638-1.546,2.636-3.787,2.636c-1.468,0-2.973-0.28-4.17-0.639l-0.118,3.636
		c1.198,0.241,2.628,0.398,4.057,0.398C9.542,48.015,12.747,45.299,12.747,41.584"/>
	<polygon fill="#0058A2" points="34.148,47.616 26.499,36.829 33.607,27.762 28.546,27.762 22.327,36.271 22.327,18.453 
		18.195,18.453 18.195,47.616 22.327,47.616 22.327,37.551 28.895,47.616 	"/>
	<path fill="#0058A2" d="M55.097,27.762h-4.443l-2.743,8.068c-0.694,2.039-1.506,4.596-1.892,6.192h-0.038
		c-0.425-1.677-0.888-3.436-1.507-5.193l-3.13-9.067H36.71l7.184,19.854l-0.772,2.118c-1.197,3.395-2.28,4.314-4.209,4.314
		c-0.889,0-1.662-0.12-2.511-0.439l-0.308,3.756c0.773,0.159,1.814,0.278,2.586,0.278c4.328,0,6.22-1.917,8.461-8.109L55.097,27.762
		z"/>
	<path fill="#0058A2" d="M76.217,50.333c0-3.715-2.356-5.752-6.527-5.752h-3.285c-2.317,0-3.167-0.4-3.167-1.399
		c0-0.558,0.347-1.157,1.119-1.478c0.581,0.119,1.47,0.199,2.203,0.199c5.406,0,8.306-3.035,8.306-7.351
		c0-1.438-0.501-2.634-1.312-3.315h2.936v-3.355h-6.491c-1.042-0.239-2.009-0.402-3.167-0.402c-5.486,0-8.576,3.517-8.576,7.712
		c0,2.478,0.964,4.512,2.858,5.591c-1.353,0.601-2.203,1.962-2.203,3.397c0,1.319,0.733,2.357,1.893,2.957
		c-1.662,0.88-3.091,2.758-3.091,4.994c0,3.835,3.129,5.83,8.152,5.83C72.045,57.962,76.217,54.567,76.217,50.333 M70.887,34.831
		c0,2.599-1.7,4.076-4.289,4.076c-2.781,0-4.326-1.518-4.326-4.112c0-2.438,1.624-4.156,4.365-4.156
		C69.302,30.638,70.887,32.197,70.887,34.831 M72.122,50.894c0,2.156-2.009,3.756-5.601,3.756c-2.781,0-4.713-1.2-4.713-3.318
		c0-1.356,0.812-2.555,2.125-3.313c0.309,0.038,0.695,0.038,1.043,0.038h3.591C71.002,48.056,72.122,49.174,72.122,50.894"/>
	<path fill="#0058A2" d="M97.606,47.628V27.771h-4.134v9.589c0,3.954-2.124,7.109-5.021,7.109c-2.202,0-2.859-1.436-2.859-3.912
		V27.771h-4.096v13.9c0,3.518,1.352,6.355,5.716,6.355c3.246,0,5.562-1.759,6.684-4.316l0.039,0.043
		c-0.192,1.117-0.27,2.834-0.27,3.875H97.606z"/>
	<path fill="#0058A2" d="M109.67,22.13c0-1.52-1.197-2.678-2.627-2.678c-1.469,0-2.665,1.199-2.665,2.678
		c0,1.478,1.195,2.676,2.665,2.676C108.473,24.806,109.67,23.608,109.67,22.13 M109.09,27.762h-4.134v19.854h4.134V27.762z"/>
	<path fill="#0058A2" d="M131.75,47.626V18.461h-4.094v9.151c-1.039-0.081-1.967-0.161-2.895-0.161
		c-6.221,0-10.042,4.395-10.042,11.227c0,5.752,2.357,9.348,7.068,9.348c2.975,0,5.217-1.68,6.258-4.115h0.076
		c-0.191,1.118-0.27,2.68-0.27,3.716H131.75z M127.657,37.357c0,3.397-1.697,7.152-4.748,7.152c-2.629,0-3.824-2.239-3.824-6.232
		c0-5.354,2.238-7.432,5.523-7.432c1.004,0,2.01,0.122,3.049,0.359V37.357z"/>
	<path fill="#0058A2" d="M153.258,36.071c0-4.713-2.357-8.591-7.842-8.591c-5.602,0-8.77,4.474-8.77,10.469
		c0,6.99,3.283,10.187,9.271,10.187c2.354,0,4.711-0.438,6.643-1.278l-0.385-3.396c-1.584,0.799-3.631,1.279-5.602,1.279
		c-3.824,0-5.795-2.077-5.678-6.67h12.242C153.217,37.309,153.258,36.631,153.258,36.071 M149.124,35.073h-8.15
		c0.346-2.677,1.969-4.435,4.287-4.435C147.696,30.638,149.2,32.356,149.124,35.073"/>
</g>
</svg>
